<svg width="18" height="26" viewBox="0 0 18 26" fill="none" xmlns="http://www.w3.org/2000/svg">
<g id="Group 3">
<path id="Vector" opacity="0.4" d="M8.69486 0.809509C5.45863 0.809509 2.82764 3.4405 2.82764 6.67674C2.82764 9.85121 5.3104 12.4204 8.54664 12.5316C8.64546 12.5193 8.74427 12.5193 8.81839 12.5316C8.84309 12.5316 8.85544 12.5316 8.88014 12.5316C8.8925 12.5316 8.8925 12.5316 8.90485 12.5316C12.067 12.4204 14.5497 9.85121 14.5621 6.67674C14.5621 3.4405 11.9311 0.809509 8.69486 0.809509Z" fill="#888888"/>
<path id="Vector_2" d="M14.9706 15.8171C11.5244 13.5196 5.90428 13.5196 2.43336 15.8171C0.864644 16.867 0 18.2875 0 19.8068C0 21.3261 0.864644 22.7343 2.421 23.7718C4.15029 24.9329 6.42302 25.5135 8.6958 25.5135C10.9686 25.5135 13.2414 24.9329 14.9706 23.7718C16.527 22.7219 17.3916 21.3138 17.3916 19.7821C17.3793 18.2628 16.527 16.8547 14.9706 15.8171Z" fill="#888888"/>
</g>
</svg>
