<svg width="18" height="18" viewBox="0 0 18 18" fill="none" xmlns="http://www.w3.org/2000/svg">
<g id="Group 36">
<g id="Group 35">
<path id="Vector" opacity="0.5" d="M9 18C13.9705 18 18 13.9705 18 8.99998C18 4.02942 13.9705 -1.52588e-05 9 -1.52588e-05C4.02943 -1.52588e-05 0 4.02942 0 8.99998C0 13.9705 4.02943 18 9 18Z" fill="#FFFFFF"/>
<path id="Vector_2" d="M12.6 10.8409V8.59391C12.6 6.66399 12.6 5.69905 12.0728 5.09952C11.5456 4.49998 10.6971 4.49998 9.00002 4.49998C7.30298 4.49998 6.45444 4.49998 5.92724 5.09952C5.40002 5.69905 5.40002 6.66399 5.40002 8.59391V10.8409C5.40002 12.2343 5.40002 12.9311 5.69367 13.2356C5.83371 13.3807 6.01049 13.4719 6.19879 13.4962C6.59363 13.547 7.05472 13.0882 7.9769 12.1706C8.38451 11.765 8.58836 11.5622 8.82416 11.5087C8.94026 11.4825 9.05978 11.4825 9.17588 11.5087C9.41168 11.5622 9.61553 11.765 10.0231 12.1706C10.9454 13.0882 11.4064 13.547 11.8013 13.4962C11.9896 13.4719 12.1663 13.3807 12.3064 13.2356C12.6 12.9311 12.6 12.2343 12.6 10.8409Z" fill="#E43944"/>
</g>
</g>
</svg>
