<svg width="25" height="26" viewBox="0 0 25 26" fill="none" xmlns="http://www.w3.org/2000/svg">
<g id="Group 2">
<path id="Vector" d="M18.5281 4.46572V13.2604C18.5281 15.7184 16.7864 16.6695 14.6495 15.3849L13.0191 14.3968C12.6485 14.1744 12.0556 14.1744 11.685 14.3968L10.0546 15.3849C7.91767 16.6695 6.17603 15.7184 6.17603 13.2604V4.50277C6.18838 2.04471 7.42358 0.809509 9.88164 0.809509H14.8225C17.2682 0.809509 18.5034 2.03236 18.5281 4.46572Z" fill="#888888"/>
<path id="Vector_2" opacity="0.4" d="M24.7041 13.0381V16.7807C24.7041 23.0185 22.2337 25.5136 16.0577 25.5136H8.64644C2.47041 25.5136 0 23.0185 0 16.7807V13.0381C0 7.80075 1.74164 5.20682 5.95369 4.50275H6.17603V13.2604C6.17603 15.7185 7.91767 16.6696 10.0546 15.385L11.685 14.3968C12.0556 14.1745 12.6485 14.1745 13.0191 14.3968L14.6495 15.385C16.7864 16.6696 18.5281 15.7185 18.5281 13.2604V4.4657C22.9007 5.10801 24.7041 7.71429 24.7041 13.0381Z" fill="#888888"/>
</g>
</svg>
