<svg width="29" height="29" viewBox="0 0 29 29" fill="none" xmlns="http://www.w3.org/2000/svg">
<g id="Group 94">
<rect id="Rectangle 24" width="29" height="29" rx="5" fill="#E43944" fill-opacity="0.1"/>
<g id="Group 36">
<path id="Vector" d="M20 17.1591V13.9134C20 11.1258 20 9.73199 19.1945 8.86599C18.389 8 17.0927 8 14.5 8C11.9073 8 10.6109 8 9.80546 8.86599C9 9.73199 9 11.1258 9 13.9134V17.1591C9 19.1718 9 20.1782 9.44862 20.618C9.66257 20.8277 9.93265 20.9594 10.2203 20.9945C10.8236 21.0678 11.528 20.4052 12.9369 19.0797C13.5596 18.4938 13.8711 18.2009 14.2313 18.1237C14.4087 18.0858 14.5913 18.0858 14.7687 18.1237C15.1289 18.2009 15.4404 18.4938 16.0631 19.0797C17.4721 20.4052 18.1765 21.0678 18.7797 20.9945C19.0673 20.9594 19.3374 20.8277 19.5513 20.618C20 20.1782 20 19.1718 20 17.1591Z" fill="#E43944"/>
</g>
</g>
</svg>
