<svg width="28" height="27" viewBox="0 0 28 27" fill="none" xmlns="http://www.w3.org/2000/svg">
<g id="Group 4">
<path id="Vector" opacity="0.4" d="M13.5778 4.39079V26.156C13.347 26.156 13.1026 26.1153 12.9125 26.0067L12.8582 25.9795C10.2513 24.5538 5.70269 23.0603 2.7563 22.6665L2.36254 22.6122C1.05907 22.4493 0 21.2273 0 19.9238V3.52181C0 1.90604 1.31705 0.684038 2.93281 0.819816C5.78416 1.05064 10.1019 2.48989 12.5188 3.99703L12.8582 4.2007C13.0619 4.3229 13.3199 4.39079 13.5778 4.39079Z" fill="#888888"/>
<path id="Vector_2" d="M27.1557 3.53552V19.9239C27.1557 21.2274 26.0967 22.4494 24.7932 22.6123L24.3451 22.6667C21.3851 23.0604 16.823 24.5676 14.216 26.0068C14.0395 26.1154 13.8223 26.1562 13.5779 26.1562V4.39092C13.8359 4.39092 14.0938 4.32303 14.2975 4.20083L14.5283 4.05148C16.9452 2.53076 21.2765 1.07793 24.1279 0.833529H24.2093C25.8251 0.69775 27.1557 1.90618 27.1557 3.53552Z" fill="#888888"/>
<path id="Vector_3" d="M7.80724 9.7405H4.75222C4.19553 9.7405 3.73389 9.27886 3.73389 8.72217C3.73389 8.16547 4.19553 7.70383 4.75222 7.70383H7.80724C8.36393 7.70383 8.82558 8.16547 8.82558 8.72217C8.82558 9.27886 8.36393 9.7405 7.80724 9.7405Z" fill="#888888"/>
<path id="Vector_4" d="M8.82558 13.8139H4.75222C4.19553 13.8139 3.73389 13.3522 3.73389 12.7955C3.73389 12.2388 4.19553 11.7772 4.75222 11.7772H8.82558C9.38227 11.7772 9.84392 12.2388 9.84392 12.7955C9.84392 13.3522 9.38227 13.8139 8.82558 13.8139Z" fill="#888888"/>
</g>
</svg>
