<svg width="20" height="20" viewBox="0 0 20 20" fill="none" xmlns="http://www.w3.org/2000/svg">
<g id="Group 50">
<path id="Vector" d="M8.21802 14.9679C8.63202 15.4989 9.28002 15.8499 10 15.8499C11.242 15.8499 12.25 14.8419 12.25 13.5999C12.25 13.0869 12.079 12.6099 11.791 12.2319" stroke="#242424" stroke-linecap="round" stroke-linejoin="round"/>
<path id="Vector_2" d="M1.738 17.92C1.189 17.236 1 16.147 1 14.5V12.7C1 9.09995 1.9 8.19995 5.5 8.19995H14.5C14.824 8.19995 15.121 8.20895 15.4 8.22695C18.253 8.38895 19 9.42395 19 12.7V14.5C19 18.1 18.1 19 14.5 19H5.5C5.176 19 4.879 18.991 4.6 18.973" stroke="#242424" stroke-linecap="round" stroke-linejoin="round"/>
<path id="Vector_3" d="M4.6001 8.2V6.4C4.6001 3.421 5.5001 1 10.0001 1C13.7351 1 14.9861 2.242 15.3101 4.204" stroke="#242424" stroke-linecap="round" stroke-linejoin="round"/>
<path id="Vector_4" d="M19 1L1 19" stroke="#242424" stroke-linecap="round" stroke-linejoin="round"/>
</g>
</svg>
