<svg width="22" height="20" viewBox="0 0 22 20" fill="none" xmlns="http://www.w3.org/2000/svg">
<g id="Group 55">
<path id="Vector" d="M20.2189 3.02991C14.6089 13.6699 7.40884 13.6599 1.79883 3.02991" stroke="#242424" stroke-linecap="round" stroke-linejoin="round"/>
<path id="Vector_2" d="M1 5.00001V15C1 16.0609 1.42143 17.0782 2.17157 17.8284C2.92172 18.5785 3.93914 19 5.00001 19H17C18.0609 19 19.0783 18.5785 19.8284 17.8284C20.5786 17.0782 21 16.0609 21 15V5.00001C21 3.93914 20.5786 2.92166 19.8284 2.17151C19.0783 1.42137 18.0609 1 17 1H5.00001C3.93914 1 2.92172 1.42137 2.17157 2.17151C1.42143 2.92166 1 3.93914 1 5.00001Z" stroke="#242424" stroke-linecap="round" stroke-linejoin="round"/>
</g>
</svg>
