<svg width="18" height="16" viewBox="0 0 18 16" fill="none" xmlns="http://www.w3.org/2000/svg">
<g id="Group 51">
<path id="Vector" d="M12.2 7.99998C12.2 9.65921 10.8592 11 9.19993 11C7.54071 11 6.19995 9.65921 6.19995 7.99998C6.19995 6.34076 7.54071 5 9.19993 5C10.8592 5 12.2 6.34076 12.2 7.99998Z" stroke="#242424" stroke-linecap="round" stroke-linejoin="round"/>
<path id="Vector_2" d="M9.20001 15C12.1582 15 14.9153 13.2405 16.8343 10.1952C17.5886 9.00243 17.5886 6.9976 16.8343 5.80483C14.9153 2.75951 12.1582 1 9.20001 1C6.24179 1 3.48472 2.75951 1.56566 5.80483C0.811446 6.9976 0.811446 9.00243 1.56566 10.1952C3.48472 13.2405 6.24179 15 9.20001 15Z" stroke="#242424" stroke-linecap="round" stroke-linejoin="round"/>
</g>
</svg>
