<svg width="17" height="24" viewBox="0 0 17 24" fill="none" xmlns="http://www.w3.org/2000/svg">
<g id="Group 48">
<path id="Vector" d="M8.71545 10.6615C8.60224 10.6501 8.46639 10.6501 8.34186 10.6615C5.64738 10.5709 3.50769 8.36328 3.50769 5.64621C3.50769 2.87253 5.74927 0.619629 8.53432 0.619629C11.308 0.619629 13.5609 2.87253 13.5609 5.64621C13.5496 8.36328 11.4099 10.5709 8.71545 10.6615Z" stroke="#242424" stroke-linecap="round" stroke-linejoin="round"/>
<path id="Vector_2" d="M3.05478 14.8391C0.315072 16.6731 0.315072 19.6619 3.05478 21.4846C6.16809 23.5677 11.274 23.5677 14.3873 21.4846C17.127 19.6506 17.127 16.6618 14.3873 14.8391C11.2853 12.7673 6.17942 12.7673 3.05478 14.8391Z" stroke="#242424" stroke-linecap="round" stroke-linejoin="round"/>
</g>
</svg>
