<svg width="26" height="29" viewBox="0 0 26 29" fill="none" xmlns="http://www.w3.org/2000/svg">
<g id="Group 33">
<g id="Group 32">
<path id="Vector" opacity="0.5" d="M1 11.9966C1 7.81883 1 5.72997 1.48481 5.02724C1.9696 4.3245 3.90011 3.65219 7.76113 2.30755L8.49673 2.05138C10.5094 1.35046 11.5157 1 12.5577 1C13.5997 1 14.606 1.35046 16.6187 2.05138L17.3543 2.30755C21.2153 3.65219 23.1458 4.3245 23.6306 5.02724C24.1154 5.72997 24.1154 7.81883 24.1154 11.9966C24.1154 12.6275 24.1154 13.3119 24.1154 14.054C24.1154 21.4201 18.6717 24.9949 15.2563 26.5128C14.3299 26.9245 13.8667 27.1304 12.5577 27.1304C11.2487 27.1304 10.7855 26.9245 9.85905 26.5128C6.44362 24.9949 1 21.4201 1 14.054C1 13.3119 1 12.6275 1 11.9966Z" stroke="#E43944" stroke-width="2"/>
<path id="Vector_2" d="M12.5579 8.83914V14.0652" stroke="#E43944" stroke-width="2" stroke-linecap="round"/>
<path id="Vector_3" d="M12.5576 19.2913C13.2669 19.2913 13.8418 18.7063 13.8418 17.9848C13.8418 17.2632 13.2669 16.6783 12.5576 16.6783C11.8484 16.6783 11.2734 17.2632 11.2734 17.9848C11.2734 18.7063 11.8484 19.2913 12.5576 19.2913Z" fill="#E43944"/>
</g>
</g>
</svg>
