<svg width="28" height="34" viewBox="0 0 28 34" fill="none" xmlns="http://www.w3.org/2000/svg">
<g id="Group 80">
<path id="Vector" d="M13.6469 2.52501C8.44412 2.52501 4.2159 6.75322 4.2159 11.956V16.4986C4.2159 17.4574 3.80723 18.9192 3.31996 19.7366L1.51236 22.7388C0.396367 24.5935 1.16656 26.6526 3.20994 27.3442C9.98451 29.6076 17.2935 29.6076 24.0681 27.3442C25.97 26.7155 26.803 24.4678 25.7656 22.7388L23.958 19.7366C23.4865 18.9192 23.0778 17.4574 23.0778 16.4986V11.956C23.0778 6.76894 18.8339 2.52501 13.6469 2.52501Z" stroke="#131313" stroke-width="2" stroke-miterlimit="10" stroke-linecap="round"/>
<path id="Vector_2" d="M16.555 2.9805C16.0677 2.83904 15.5648 2.72901 15.0461 2.66614C13.5371 2.47752 12.091 2.58754 10.7393 2.9805C11.1951 1.81735 12.3268 1 13.6471 1C14.9675 1 16.0992 1.81735 16.555 2.9805Z" stroke="#131313" stroke-width="2" stroke-miterlimit="10" stroke-linecap="round" stroke-linejoin="round"/>
<path id="Vector_3" opacity="0.4" d="M18.3621 27.9099C18.3621 30.5034 16.2401 32.6254 13.6466 32.6254C12.3577 32.6254 11.1631 32.0909 10.3144 31.2422C9.46557 30.3934 8.93115 29.1988 8.93115 27.9099" stroke="#131313" stroke-width="2" stroke-miterlimit="10"/>
</g>
</svg>
