<svg width="19" height="26" viewBox="0 0 19 26" fill="none" xmlns="http://www.w3.org/2000/svg">
<g id="Group 5">
<path id="Vector" opacity="0.4" d="M18.5643 16.2371L17.3291 14.1866C17.0697 13.7296 16.8351 12.8649 16.8351 12.3585V9.23344C16.8351 5.20667 13.5618 1.92102 9.52264 1.92102C5.48357 1.92102 2.21027 5.20667 2.21027 9.23344V12.3585C2.21027 12.8649 1.97558 13.7296 1.71619 14.1743L0.468632 16.2371C-0.0254504 17.0646 -0.136619 17.9787 0.172183 18.8186C0.468632 19.6462 1.1727 20.2885 2.08675 20.5973C4.48305 21.4126 7.00287 21.8078 9.52264 21.8078C12.0425 21.8078 14.5623 21.4126 16.9586 20.6097C17.8232 20.3256 18.4902 19.6709 18.8114 18.8186C19.1325 17.9663 19.0461 17.0276 18.5643 16.2371Z" fill="#888888"/>
<path id="Vector_2" d="M12.2782 2.43998C11.4259 2.10647 10.4995 1.92119 9.52367 1.92119C8.56021 1.92119 7.63381 2.09412 6.78149 2.43998C7.31266 1.43946 8.36258 0.809509 9.52367 0.809509C10.6971 0.809509 11.7347 1.43946 12.2782 2.43998Z" fill="#888888"/>
<path id="Vector_3" d="M12.9933 23.0555C12.4745 24.4884 11.1035 25.5136 9.4977 25.5136C8.52188 25.5136 7.55842 25.1183 6.87905 24.4143C6.48378 24.0437 6.18733 23.5496 6.0144 23.0432C6.17498 23.0679 6.33556 23.0802 6.50849 23.1049C6.79258 23.142 7.08904 23.1791 7.38549 23.2038C8.08956 23.2655 8.80598 23.3026 9.5224 23.3026C10.2265 23.3026 10.9305 23.2655 11.6223 23.2038C11.8816 23.1791 12.141 23.1667 12.3881 23.1296C12.5857 23.1049 12.7833 23.0802 12.9933 23.0555Z" fill="#888888"/>
</g>
</svg>
