<svg width="20" height="25" viewBox="0 0 20 25" fill="none" xmlns="http://www.w3.org/2000/svg">
<g id="Group 24">
<path id="Vector" opacity="0.4" d="M2.4376 7.1376L2.6126 7.0376L4.35009 6.03761L7.93757 3.96262C9.03757 3.32512 10.7126 3.32512 11.8126 3.96262L15.4 6.03761L17.1375 7.0501L17.3625 7.1751C19.6 8.6751 19.75 8.95009 19.75 11.3626V17.1251C19.75 19.5375 19.6 19.8125 17.3125 21.35L11.8126 24.525C11.2626 24.85 10.5751 25 9.87506 25C9.18756 25 8.48757 24.85 7.93757 24.525L2.3876 21.3125C0.15011 19.8125 0.000110626 19.5375 0.000110626 17.1251V11.3626C0.000110626 8.95009 0.150108 8.6751 2.4376 7.1376Z" fill="#888888"/>
<path id="Vector_2" d="M17.1377 7.04996L15.4002 6.03747L11.9752 4.06248L11.8127 3.96248C10.7127 3.32498 9.03767 3.32498 7.93768 3.96248L7.77518 4.06248L4.3502 6.03747L2.61271 7.03746V4.36248C2.61271 1.54999 4.1627 0 6.97518 0H12.7877C15.6002 0 17.1377 1.54999 17.1377 4.36248V7.04996Z" fill="#888888"/>
<path id="Vector_3" d="M6.32493 14.1749L7.09992 15.1249C7.22492 15.2624 7.31242 15.5374 7.29992 15.7249L7.22492 16.9499C7.17492 17.6999 7.71242 18.0874 8.41242 17.8124L9.54991 17.3624C9.72491 17.2999 10.0249 17.2999 10.1999 17.3624L11.3374 17.8124C12.0374 18.0874 12.5748 17.6999 12.5248 16.9499L12.4498 15.7249C12.4373 15.5374 12.5248 15.2624 12.6498 15.1249L13.4248 14.1749C13.9123 13.5999 13.6998 12.9624 12.9748 12.7749L11.7874 12.4749C11.5999 12.4249 11.3749 12.2499 11.2749 12.0874L10.6124 11.0624C10.1999 10.4249 9.54991 10.4249 9.13741 11.0624L8.47492 12.0874C8.37492 12.2499 8.14992 12.4249 7.96242 12.4749L6.77492 12.7749C6.04993 12.9624 5.83743 13.5999 6.32493 14.1749Z" fill="#888888"/>
</g>
</svg>
