<svg width="16" height="18" viewBox="0 0 16 18" fill="none" xmlns="http://www.w3.org/2000/svg">
<g id="Group 8">
<path id="Vector" opacity="0.4" d="M7.72416 17.818C11.9901 17.818 15.4483 14.3598 15.4483 10.0939C15.4483 5.82793 11.9901 2.36972 7.72416 2.36972C3.45821 2.36972 0 5.82793 0 10.0939C0 14.3598 3.45821 17.818 7.72416 17.818Z" fill="#E43944"/>
<path id="Vector_2" d="M7.72409 10.4681C7.35882 10.4681 7.05591 10.1652 7.05591 9.79994V5.34542C7.05591 4.98015 7.35882 4.67725 7.72409 4.67725C8.08936 4.67725 8.39226 4.98015 8.39226 5.34542V9.79994C8.39226 10.1652 8.08936 10.4681 7.72409 10.4681Z" fill="#E43944"/>
<path id="Vector_3" d="M10.2993 1.29181H5.14987C4.79351 1.29181 4.50842 1.00672 4.50842 0.65036C4.50842 0.293998 4.79351 0 5.14987 0H10.2993C10.6556 0 10.9407 0.285089 10.9407 0.641451C10.9407 0.997813 10.6556 1.29181 10.2993 1.29181Z" fill="#E43944"/>
</g>
</svg>
