<svg width="16" height="16" viewBox="0 0 16 16" fill="none" xmlns="http://www.w3.org/2000/svg">
<g id="Group 7">
<path id="Vector" opacity="0.4" d="M7.90906 15.8181C12.2772 15.8181 15.8181 12.2771 15.8181 7.90906C15.8181 3.541 12.2772 0 7.90906 0C3.54101 0 0 3.541 0 7.90906C0 12.2771 3.54101 15.8181 7.90906 15.8181Z" fill="#E43944"/>
<path id="Vector_2" d="M10.2808 6.50923L7.98716 5.18844C7.41771 4.85626 6.72962 4.85626 6.16015 5.18844C5.5907 5.52062 5.25061 6.10589 5.25061 6.77023V9.41977C5.25061 10.0762 5.5907 10.6694 6.16015 11.0016C6.44489 11.1677 6.76126 11.2468 7.06971 11.2468C7.38607 11.2468 7.69452 11.1677 7.97925 11.0016L10.2729 9.68076C10.8423 9.34858 11.1824 8.76331 11.1824 8.09895C11.1982 7.43459 10.8581 6.84141 10.2808 6.50923Z" fill="#E43944"/>
</g>
</svg>
