<svg width="43" height="43" viewBox="0 0 43 43" fill="none" xmlns="http://www.w3.org/2000/svg">
<g id="Group 71">
<rect id="Rectangle 249" width="43" height="43" rx="13" fill="#E3E3E3"/>
<path id="Vector" d="M30.0301 18.6912L25.3604 13.9853M30.0301 18.6912L24.1948 24.5716C23.4258 25.3466 22.4925 25.9584 21.4209 26.1446C20.3389 26.3327 18.9962 26.3953 18.3559 25.75C17.7156 25.1047 17.7777 23.7515 17.9643 22.6612C18.1491 21.5813 18.7562 20.6407 19.5251 19.8658L25.3604 13.9853M30.0301 18.6912C30.0301 18.6912 33.5322 15.1618 31.1974 12.8088C28.8626 10.4559 25.3604 13.9853 25.3604 13.9853M31.846 22C31.846 29.6471 29.5112 32 21.923 32C14.3348 32 12 29.6471 12 22C12 14.3529 14.3348 12 21.923 12" stroke="#131313" stroke-width="2" stroke-linecap="round" stroke-linejoin="round"/>
</g>
</svg>
